<svg width="81" height="81" viewBox="0 0 81 81" fill="none" xmlns="http://www.w3.org/2000/svg">
<path d="M80.5 0.5H0.5V80.5H80.5V0.5Z" fill="#BC85F3"/>
<path d="M73.7956 7.2041H7.20471V73.7953H73.7956V7.2041Z" fill="#252653"/>
<path fill-rule="evenodd" clip-rule="evenodd" d="M32.6632 49.6828L35.4495 58.9514H43.2758L32.1618 21.6482C32.1411 21.5806 32.0894 21.5338 31.9809 21.5338L22.7847 21.5078C22.428 21.5078 22.4177 21.6951 22.4487 22.0487C22.5624 23.3334 22.5004 24.0512 22.2368 25.055L12.3841 58.9566L19.8072 58.9462L22.1179 49.6776L32.6632 49.6828ZM31.3296 42.9629H23.71L27.4061 27.9469L31.3296 42.9629ZM52.4048 46.6713L66.7702 46.6921C67.6749 45.5271 67.8403 43.3373 67.8144 41.9018C67.7162 36.0764 63.8806 30.5007 56.9538 30.4643C45.3228 30.3967 43.1207 45.1942 47.0804 53.7294C48.3262 56.4132 50.8281 58.1192 53.7643 58.9306C55.1031 59.2999 56.5247 59.4871 57.9618 59.4923C60.8049 59.5027 63.6945 58.811 66.0155 57.4795C66.0517 57.4587 66.1137 57.4587 66.1189 57.417V57.2506L66.1137 52.4291C66.1137 52.2106 65.9483 52.0858 65.7002 52.1638C62.764 53.0532 52.8183 55.8931 52.3582 46.9418C52.3531 46.8742 52.3376 46.6713 52.4048 46.6713ZM59.6056 41.8394H52.291C52.3272 37.9281 54.1106 35.7071 56.8659 35.6967C59.3678 35.6863 60.96 37.434 61.0375 41.7458C61.0375 41.9434 61.0375 41.8394 61.0375 41.8394H59.6056Z" fill="#BC85F3"/>
</svg>
