<svg width="171" height="27" viewBox="0 0 171 27" fill="none" xmlns="http://www.w3.org/2000/svg">
<path d="M7.41471 26.1211C6.78429 26.6123 6.14017 26.6259 5.48235 26.162C4.82452 25.6982 4.60525 25.0843 4.82452 24.3203L7.16802 16.7485L1.20649 12.5329C0.54867 12.0691 0.350226 11.4551 0.611163 10.6911C0.871003 9.92715 1.39836 9.54516 2.19323 9.54516H9.55264L11.9372 1.68692C12.0743 1.30492 12.287 1.01133 12.5753 0.806144C12.8626 0.602048 13.1707 0.5 13.4996 0.5C13.8285 0.5 14.1366 0.602048 14.4238 0.806144C14.7122 1.01133 14.9249 1.30492 15.0619 1.68692L17.4465 9.54516H24.8059C25.6008 9.54516 26.1287 9.92715 26.3896 10.6911C26.6495 11.4551 26.4505 12.0691 25.7927 12.5329L19.8311 16.7485L22.1746 24.3203C22.3939 25.0843 22.1746 25.6982 21.5168 26.162C20.859 26.6259 20.2149 26.6123 19.5844 26.1211L13.4996 21.4962L7.41471 26.1211Z" fill="#070707"/>
<path d="M43.4147 26.1211C42.7843 26.6123 42.1402 26.6259 41.4823 26.162C40.8245 25.6982 40.6053 25.0843 40.8245 24.3203L43.168 16.7485L37.2065 12.5329C36.5487 12.0691 36.3502 11.4551 36.6112 10.6911C36.871 9.92715 37.3984 9.54516 38.1932 9.54516H45.5526L47.9372 1.68692C48.0743 1.30492 48.287 1.01133 48.5753 0.806144C48.8626 0.602048 49.1707 0.5 49.4996 0.5C49.8285 0.5 50.1366 0.602048 50.4238 0.806144C50.7122 1.01133 50.9249 1.30492 51.0619 1.68692L53.4465 9.54516H60.8059C61.6008 9.54516 62.1287 9.92715 62.3896 10.6911C62.6495 11.4551 62.4505 12.0691 61.7927 12.5329L55.8311 16.7485L58.1746 24.3203C58.3939 25.0843 58.1746 25.6982 57.5168 26.162C56.859 26.6259 56.2149 26.6123 55.5844 26.1211L49.4996 21.4962L43.4147 26.1211Z" fill="#070707"/>
<path d="M79.4147 26.1211C78.7843 26.6123 78.1402 26.6259 77.4823 26.162C76.8245 25.6982 76.6053 25.0843 76.8245 24.3203L79.168 16.7485L73.2065 12.5329C72.5487 12.0691 72.3502 11.4551 72.6112 10.6911C72.871 9.92715 73.3984 9.54516 74.1932 9.54516H81.5526L83.9372 1.68692C84.0743 1.30492 84.287 1.01133 84.5753 0.806144C84.8626 0.602048 85.1707 0.5 85.4996 0.5C85.8285 0.5 86.1366 0.602048 86.4238 0.806144C86.7122 1.01133 86.9249 1.30492 87.0619 1.68692L89.4465 9.54516H96.8059C97.6008 9.54516 98.1287 9.92715 98.3896 10.6911C98.6495 11.4551 98.4505 12.0691 97.7927 12.5329L91.8311 16.7485L94.1746 24.3203C94.3939 25.0843 94.1746 25.6982 93.5168 26.162C92.859 26.6259 92.2149 26.6123 91.5844 26.1211L85.4996 21.4962L79.4147 26.1211Z" fill="#070707"/>
<path d="M115.415 26.1211C114.784 26.6123 114.14 26.6259 113.482 26.162C112.825 25.6982 112.605 25.0843 112.825 24.3203L115.168 16.7485L109.206 12.5329C108.549 12.0691 108.35 11.4551 108.611 10.6911C108.871 9.92715 109.398 9.54516 110.193 9.54516H117.553L119.937 1.68692C120.074 1.30492 120.287 1.01133 120.575 0.806144C120.863 0.602048 121.171 0.5 121.5 0.5C121.828 0.5 122.137 0.602048 122.424 0.806144C122.712 1.01133 122.925 1.30492 123.062 1.68692L125.447 9.54516H132.806C133.601 9.54516 134.129 9.92715 134.39 10.6911C134.649 11.4551 134.45 12.0691 133.793 12.5329L127.831 16.7485L130.175 24.3203C130.394 25.0843 130.175 25.6982 129.517 26.162C128.859 26.6259 128.215 26.6123 127.584 26.1211L121.5 21.4962L115.415 26.1211Z" fill="#070707"/>
<path d="M151.415 26.1211C150.784 26.6123 150.14 26.6259 149.482 26.162C148.825 25.6982 148.605 25.0843 148.825 24.3203L151.168 16.7485L145.206 12.5329C144.549 12.0691 144.35 11.4551 144.611 10.6911C144.871 9.92715 145.398 9.54516 146.193 9.54516H153.553L155.937 1.68692C156.074 1.30492 156.287 1.01133 156.575 0.806144C156.863 0.602048 157.171 0.5 157.5 0.5C157.828 0.5 158.137 0.602048 158.424 0.806144C158.712 1.01133 158.925 1.30492 159.062 1.68692L161.447 9.54516H168.806C169.601 9.54516 170.129 9.92715 170.39 10.6911C170.649 11.4551 170.45 12.0691 169.793 12.5329L163.831 16.7485L166.175 24.3203C166.394 25.0843 166.175 25.6982 165.517 26.162C164.859 26.6259 164.215 26.6123 163.584 26.1211L157.5 21.4962L151.415 26.1211Z" fill="#E5E5E5"/>
</svg>
